# xmcd
#
# Track frame offsets: 
#        150
#        9746
#        29726
#        55599
#        71217
#        86695
#        108373
#        124942
#        149047
#        167224
#        190039
#        215252
#        215566
#        215879
#        216192
#        216506
#        216819
#        217132
#        217446
#        217759
#        218093
#        218406
#        218741
#        219075
#        219409
#        219743
#        220077
#        220412
#        220746
#        221080
#        221406
#        221740
#        222074
#        222408
#        222743
#        223077
#        223411
#        223745
#        224079
#        224414
#        224748
#        225082
#        225384
#        225687
#
# Disc length: 3046 seconds
#
# Revision: 0
# Processed by: cddbd v1.5.2PL0 Copyright (c) Steve Scherf et al.
# Submitted via: ExactAudioCopy v0.99pb5
#
DISCID=2e0be42c
DTITLE=Aztra - Outoja P‰ivi‰
DYEAR=2008
DGENRE=Hip-Hop
TTITLE0=Alku
TTITLE1=Pienest Kii
TTITLE2=Pysy Hengiss‰
TTITLE3=Tasohyppely (feat. Asa)
TTITLE4=S‰‰t‰j‰t (feat. Raipati)
TTITLE5=Sepitys
TTITLE6=On Aika
TTITLE7=Kauppa K‰y (feat. Laineen Kasperi)
TTITLE8=Arkee
TTITLE9=Se Menee Niin (feat. Haho)
TTITLE10=Outoja P‰ivi‰
TTITLE11=[untitled]
TTITLE12=[untitled]
TTITLE13=[untitled]
TTITLE14=[untitled]
TTITLE15=[untitled]
TTITLE16=[untitled]
TTITLE17=[untitled]
TTITLE18=[untitled]
TTITLE19=[untitled]
TTITLE20=[untitled]
TTITLE21=[untitled]
TTITLE22=[untitled]
TTITLE23=[untitled]
TTITLE24=[untitled]
TTITLE25=[untitled]
TTITLE26=[untitled]
TTITLE27=[untitled]
TTITLE28=[untitled]
TTITLE29=[untitled]
TTITLE30=[untitled]
TTITLE31=[untitled]
TTITLE32=[untitled]
TTITLE33=[untitled]
TTITLE34=[untitled]
TTITLE35=[untitled]
TTITLE36=[untitled]
TTITLE37=[untitled]
TTITLE38=[untitled]
TTITLE39=[untitled]
TTITLE40=[untitled]
TTITLE41=[untitled]
TTITLE42=[untitled]
TTITLE43=[untitled]
EXTD=
EXTT0=
EXTT1=
EXTT2=
EXTT3=
EXTT4=
EXTT5=
EXTT6=
EXTT7=
EXTT8=
EXTT9=
EXTT10=
EXTT11=
EXTT12=
EXTT13=
EXTT14=
EXTT15=
EXTT16=
EXTT17=
EXTT18=
EXTT19=
EXTT20=
EXTT21=
EXTT22=
EXTT23=
EXTT24=
EXTT25=
EXTT26=
EXTT27=
EXTT28=
EXTT29=
EXTT30=
EXTT31=
EXTT32=
EXTT33=
EXTT34=
EXTT35=
EXTT36=
EXTT37=
EXTT38=
EXTT39=
EXTT40=
EXTT41=
EXTT42=
EXTT43=
PLAYORDER=
